<?xml version="1.0" encoding="utf-8"?>
<!-- Generator: Adobe Illustrator 16.0.0, SVG Export Plug-In . SVG Version: 6.00 Build 0)  -->
<!DOCTYPE svg PUBLIC "-//W3C//DTD SVG 1.1//EN" "http://www.w3.org/Graphics/SVG/1.1/DTD/svg11.dtd">
<svg version="1.1" id="Layer_1" xmlns="http://www.w3.org/2000/svg" xmlns:xlink="http://www.w3.org/1999/xlink" x="0px" y="0px"
	 width="394.946px" height="117px" viewBox="0 0 394.946 117" enable-background="new 0 0 394.946 117" xml:space="preserve">
<g>
	<path fill="#BA8748" d="M2.509,42.879L0,42.456l1.194-1.952l1.238,1.284c0.2,0.078,0.498,0.149,0.822,0.149
		c1.337,0,1.935-0.691,1.935-1.804c0-0.622-0.347-1.213-0.819-1.482l-2.531-1.61c-1.142-0.693-1.64-1.681-1.64-2.521
		c0-1.112,0.87-2.771,3.228-2.771c0.324,0,0.444,0.024,0.619,0.053l2.605,0.417l-1.289,1.732l-1.167-1.063
		c-0.198-0.051-0.443-0.147-0.743-0.147c-0.869,0-1.688,0.395-1.688,1.456c0,0.495,0.449,1.188,1.317,1.755l2.528,1.585
		c0.571,0.37,1.167,1.063,1.167,2.148c0,2.526-2.009,3.266-3.521,3.266C2.881,42.951,2.509,42.879,2.509,42.879"/>
	<path fill="#BA8748" d="M18.835,37.289c0,2.795-1.809,5.736-5.033,5.736c-3.229,0-5.062-2.941-5.062-5.736
		c0-2.77,1.832-5.714,5.062-5.714C17.026,31.574,18.835,34.519,18.835,37.289 M13.802,32.588c-2.36,0-3.229,2.498-3.229,4.7
		c0,2.222,0.87,4.724,3.229,4.724c2.354,0,3.224-2.502,3.224-4.724C17.026,35.086,16.156,32.588,13.802,32.588"/>
	<path fill="#BA8748" d="M20.354,31.801h4.02l-1.163,1.157v6.852c0,1.188,1.188,2.126,2.602,2.126c1.365,0,2.406-0.939,2.406-2.126
		v-6.852l-1.167-1.157h3.648l-1.167,1.157v6.852c0,1.928-2.057,3.215-4.094,3.215c-2.132,0-3.894-1.358-3.894-3.215v-6.852
		L20.354,31.801z"/>
	<polygon fill="#BA8748" points="34.107,42.802 35.198,41.713 35.198,32.812 32.915,32.812 31.549,34.171 31.549,31.801 
		40.433,31.801 40.433,34.171 39.07,32.812 36.784,32.812 36.784,41.713 37.875,42.802 	"/>
	<polygon fill="#BA8748" points="45.225,42.802 41.456,42.802 42.545,41.713 42.545,32.888 41.456,31.801 45.225,31.801 
		44.132,32.888 44.132,36.375 49.071,36.375 49.071,32.888 47.98,31.801 51.725,31.801 50.635,32.888 50.635,41.713 51.725,42.802 
		47.98,42.802 49.071,41.713 49.071,37.384 44.132,37.384 44.132,41.713 	"/>
	<polygon fill="#BA8748" points="53.221,42.802 54.312,41.713 54.312,32.888 53.221,31.801 60.909,31.801 60.909,34.171 
		59.547,32.812 55.898,32.812 55.898,36.448 58.602,36.448 59.621,35.431 59.621,38.479 58.602,37.462 55.898,37.462 55.898,41.788 
		59.547,41.788 60.909,40.429 60.909,42.802 	"/>
	<path fill="#BA8748" d="M62.628,42.802l1.093-1.088v-8.826l-1.093-1.086h4.045c2.081,0,4.093,1.157,4.093,3.086
		c0,1.041-0.918,2.153-2.26,2.575l2.582,4.203l1.139,1.137h-2.283l-2.978-5.017h-1.66v3.928l1.089,1.088H62.628z M66.673,36.771
		c1.239,0,2.254-0.868,2.254-1.909c0-1.11-0.991-2.051-2.254-2.051h-1.366v3.96H66.673z"/>
	<polygon fill="#BA8748" points="73.052,42.802 74.22,41.616 74.22,32.958 73.052,31.801 75.88,31.801 81.262,39.366 81.262,32.958 
		80.073,31.801 83.746,31.801 82.556,32.958 82.556,43.867 75.532,34.024 75.532,41.616 76.7,42.802 	"/>
	
		<line fill="none" stroke="#231F20" stroke-width="0.9049" stroke-miterlimit="10" x1="0.001" y1="53.229" x2="83.746" y2="53.229"/>
	<line fill="none" stroke="#231F20" stroke-width="0.9049" stroke-miterlimit="10" x1="0.001" y1="21.78" x2="83.746" y2="21.78"/>
	<path fill="#BA8748" d="M323.603,35.088l-1.392-1.387c-0.419-0.371-0.94-0.544-1.537-0.544c-2.284,0-3.225,2.426-3.225,4.55
		c0,2.174,1.038,4.678,3.225,4.648c0.597,0,1.118-0.174,1.537-0.543l1.392-1.385v2.225c-0.597,0.423-1.593,0.718-2.929,0.718
		c-3.272,0-5.062-2.867-5.062-5.663c0-2.744,1.79-5.638,5.311-5.638c0.965,0,2.153,0.324,2.681,0.693V35.088z"/>
	<path fill="#BA8748" d="M335.632,37.709c0,2.794-1.806,5.738-5.029,5.738c-3.228,0-5.06-2.944-5.06-5.738
		c0-2.771,1.832-5.712,5.06-5.712C333.827,31.998,335.632,34.938,335.632,37.709 M330.603,33.01c-2.357,0-3.228,2.495-3.228,4.7
		c0,2.225,0.87,4.722,3.228,4.722c2.354,0,3.224-2.497,3.224-4.722C333.827,35.504,332.957,33.01,330.603,33.01"/>
	<path fill="#BA8748" d="M336.663,43.22l1.139-1.137l3.896-9.865h0.795l3.794,9.865l1.146,1.137h-3.972l1.065-1.063l-0.789-2.073
		h-3.877l-0.814,2.073l1.088,1.063H336.663z M343.359,39.07l-1.514-4.056l-1.587,4.056H343.359z"/>
	<path fill="#BA8748" d="M350.806,43.297l-2.505-0.422l1.19-1.953l1.244,1.289c0.195,0.072,0.493,0.145,0.819,0.145
		c1.339,0,1.936-0.689,1.936-1.803c0-0.618-0.349-1.213-0.819-1.482l-2.53-1.608c-1.146-0.693-1.645-1.683-1.645-2.526
		c0-1.11,0.87-2.764,3.234-2.764c0.315,0,0.441,0.022,0.614,0.049l2.607,0.417l-1.289,1.732l-1.168-1.064
		c-0.195-0.049-0.449-0.149-0.745-0.149c-0.867,0-1.689,0.394-1.689,1.458c0,0.495,0.446,1.188,1.321,1.754l2.527,1.583
		c0.566,0.375,1.168,1.063,1.168,2.156c0,2.521-2.011,3.262-3.522,3.262C351.182,43.37,350.806,43.297,350.806,43.297"/>
	<polygon fill="#BA8748" points="358.899,43.22 359.992,42.135 359.992,33.233 357.713,33.233 356.344,34.591 356.344,32.219 
		365.222,32.219 365.222,34.591 363.858,33.233 361.574,33.233 361.574,42.135 362.672,43.22 	"/>
	<path fill="#BA8748" d="M365.579,43.22l1.143-1.137l3.892-9.865h0.797l3.791,9.865l1.146,1.137h-3.969l1.063-1.063l-0.79-2.073
		h-3.871l-0.819,2.073l1.093,1.063H365.579z M372.28,39.07l-1.515-4.056l-1.587,4.056H372.28z"/>
	<polygon fill="#BA8748" points="378.259,42.135 378.259,33.309 377.167,32.221 380.94,32.221 379.846,33.309 379.846,42.135 
		382.7,42.135 384.066,40.773 384.066,43.22 377.167,43.22 	"/>
	
		<line fill="none" stroke="#231F20" stroke-width="0.9049" stroke-miterlimit="10" x1="311.207" y1="53.229" x2="394.95" y2="53.229"/>
	
		<line fill="none" stroke="#231F20" stroke-width="0.9049" stroke-miterlimit="10" x1="311.207" y1="21.78" x2="394.95" y2="21.78"/>
	<path fill="#58595B" d="M126.376,51.378c0,6.594,1.491,8.639,6.058,8.732h3.82v5.572H92.086V60.11h4.844
		c4.566-0.093,6.058-2.138,6.058-8.732V25.93c0-6.501-1.492-8.638-6.058-8.731h-5.589v-5.573c8.665,0,11.925-0.279,16.12-1.115
		c5.124-1.021,7.919-2.417,13.696-6.688h5.218V51.378z"/>
	<path fill="#58595B" d="M137.105,66.533H91.234v-7.274h5.696c3.667-0.074,5.206-1.187,5.206-7.88V25.93
		c0-6.65-1.611-7.806-5.223-7.88l-6.424,0.001v-7.277h0.852c8.993,0,12.068-0.323,15.954-1.098c4.966-0.99,7.587-2.273,13.356-6.538
		l0.225-0.167h6.351v48.408c0,6.693,1.54,7.806,5.223,7.881l4.654-0.001V66.533z M92.938,64.831h42.464v-3.868h-2.968
		c-5.781-0.119-6.909-3.604-6.909-9.584V4.674h-4.086c-5.793,4.264-8.671,5.647-13.81,6.672c-4.3,0.857-7.711,1.113-15.435,1.13
		v3.871h4.737c5.781,0.12,6.91,3.604,6.91,9.583v25.449c0,5.98-1.128,9.465-6.892,9.583h-4.01V64.831z"/>
	<path fill="#58595B" d="M141.303,32.896c-2.89-2.974-4.754-7.525-4.754-11.705c0-11.236,10.809-18.855,26.93-18.855
		c14.442,0.093,23.574,5.48,23.574,14.026c0,5.571-3.075,8.545-12.114,11.611c4.379,1.764,5.963,2.508,8.106,3.991
		c4.847,3.347,7.363,8.082,7.363,13.749c0,12.816-12.115,21.363-30.098,21.363c-15.002,0-25.252-6.223-25.252-15.606
		c0-6.314,4.475-10.958,13.697-13.838C144.564,35.59,143.071,34.66,141.303,32.896 M150.433,50.172
		c0,7.336,3.728,11.793,9.878,11.793c5.777,0,9.41-3.342,9.41-8.822c0-5.943-2.143-7.803-12.58-10.96l-3.82-1.208
		C150.993,44.692,150.433,46.549,150.433,50.172 M172.89,15.433c0-4.922-3.169-7.709-8.572-7.709c-4.938,0-7.827,2.51-7.827,6.779
		c0,4.737,2.329,6.688,10.157,8.639c0.837,0.185,1.956,0.466,3.54,0.836C172.331,20.262,172.89,18.405,172.89,15.433"/>
	<path fill="#58595B" d="M160.311,67.927c-15.613,0-26.104-6.613-26.104-16.457c0-6.277,4.149-10.976,12.338-13.986
		c-2.991-1.527-4.305-2.452-5.842-3.984c-3.091-3.182-5.005-7.894-5.005-12.308c0-11.788,11.165-19.707,27.782-19.707
		c15.067,0.098,24.425,5.798,24.425,14.878c0,5.518-2.819,8.71-10.587,11.663c2.89,1.204,4.373,1.965,6.212,3.238
		c5.058,3.491,7.73,8.487,7.73,14.449C191.26,59,178.822,67.927,160.311,67.927z M163.474,3.187
		c-15.594,0.001-26.073,7.236-26.073,18.005c0,3.927,1.771,8.289,4.513,11.111c1.649,1.646,3.067,2.542,7.214,4.564l1.927,0.938
		l-2.045,0.639c-8.815,2.752-13.1,7.014-13.1,13.025c0,8.824,9.805,14.754,24.4,14.754c17.493,0,29.247-8.242,29.247-20.51
		c0-5.376-2.418-9.889-6.995-13.049c-2.114-1.464-3.674-2.184-7.94-3.902l-2.13-0.857l2.175-0.738
		c8.625-2.925,11.535-5.652,11.535-10.805C186.202,8.327,177.494,3.278,163.474,3.187z M160.311,62.817
		c-6.619,0-10.729-4.846-10.729-12.645c0-3.838,0.621-5.822,3.019-9.648l0.35-0.558l4.447,1.407
		c10.205,3.086,13.175,5.006,13.175,11.771C170.572,59.02,166.543,62.817,160.311,62.817z M153.696,41.987
		c-1.928,3.17-2.412,4.885-2.412,8.186c0,6.852,3.374,10.942,9.026,10.942c5.359,0,8.558-2.98,8.558-7.97
		c0-5.211-1.409-6.95-11.974-10.145L153.696,41.987z M170.609,24.95l-2.462-0.582c-0.668-0.16-1.22-0.293-1.684-0.395
		c-7.341-1.829-10.825-3.71-10.825-9.47c0-4.777,3.245-7.631,8.679-7.631c5.9,0,9.424,3.201,9.424,8.561
		c0,3.171-0.633,5.184-2.817,8.97L170.609,24.95z M164.317,8.575c-4.433,0-6.976,2.161-6.976,5.928c0,3.838,1.321,5.772,9.512,7.813
		c0.45,0.099,1.009,0.233,1.69,0.397l1.22,0.29c1.776-3.162,2.274-4.87,2.274-7.57C172.038,11.011,169.297,8.575,164.317,8.575z"/>
	<path fill="#58595B" d="M201.499,32.896c-2.89-2.974-4.751-7.525-4.751-11.705c0-11.236,10.808-18.855,26.926-18.855
		c14.444,0.093,23.577,5.48,23.577,14.026c0,5.571-3.077,8.545-12.115,11.611c4.379,1.764,5.966,2.508,8.111,3.991
		c4.846,3.347,7.357,8.082,7.357,13.749c0,12.816-12.111,21.363-30.097,21.363c-15.002,0-25.251-6.223-25.251-15.606
		c0-6.314,4.471-10.958,13.695-13.838C204.76,35.59,203.269,34.66,201.499,32.896 M210.63,50.172c0,7.336,3.727,11.793,9.877,11.793
		c5.777,0,9.41-3.342,9.41-8.822c0-5.943-2.142-7.803-12.579-10.96l-3.82-1.208C211.189,44.692,210.63,46.549,210.63,50.172
		 M233.084,15.433c0-4.922-3.167-7.709-8.569-7.709c-4.94,0-7.829,2.51-7.829,6.779c0,4.737,2.329,6.688,10.155,8.639
		c0.842,0.185,1.96,0.466,3.54,0.836C232.527,20.262,233.084,18.405,233.084,15.433"/>
	<path fill="#58595B" d="M220.507,67.927c-15.613,0-26.103-6.613-26.103-16.457c0-6.278,4.148-10.977,12.335-13.988
		c-2.988-1.525-4.302-2.449-5.842-3.982c-3.088-3.181-5.003-7.892-5.003-12.308c0-11.788,11.164-19.707,27.778-19.707
		c15.07,0.098,24.428,5.798,24.428,14.878c0,5.517-2.819,8.709-10.588,11.663c2.895,1.206,4.377,1.968,6.217,3.238
		c5.052,3.489,7.725,8.485,7.725,14.449C251.455,59,239.018,67.927,220.507,67.927z M223.668,3.187
		c-15.592,0.001-26.07,7.236-26.07,18.005c0,3.929,1.771,8.291,4.512,11.111c1.651,1.646,3.069,2.544,7.214,4.564l1.928,0.938
		l-2.046,0.639c-8.813,2.752-13.097,7.013-13.097,13.025c0,8.824,9.805,14.754,24.399,14.754c17.491,0,29.244-8.242,29.244-20.51
		c0-5.38-2.417-9.891-6.989-13.049c-2.112-1.46-3.674-2.182-7.945-3.902l-2.13-0.857l2.175-0.738
		c8.626-2.926,11.536-5.652,11.536-10.805C246.398,8.327,237.689,3.278,223.668,3.187z M220.507,62.817
		c-6.618,0-10.729-4.846-10.729-12.645c0-3.84,0.62-5.824,3.019-9.649l0.35-0.558l4.446,1.407
		c10.206,3.086,13.177,5.006,13.177,11.771C230.77,59.02,226.742,62.817,220.507,62.817z M213.894,41.987
		c-1.928,3.168-2.411,4.882-2.411,8.186c0,6.852,3.373,10.942,9.024,10.942c5.36,0,8.56-2.98,8.56-7.97
		c0-5.212-1.409-6.95-11.976-10.145L213.894,41.987z M230.803,24.952l-2.404-0.57c-0.693-0.166-1.262-0.303-1.74-0.408
		c-7.341-1.83-10.825-3.712-10.825-9.47c0-4.777,3.246-7.631,8.682-7.631c5.897,0,9.421,3.201,9.421,8.561
		c0,3.173-0.632,5.186-2.817,8.971L230.803,24.952z M224.515,8.575c-4.436,0-6.978,2.161-6.978,5.928
		c0,3.838,1.321,5.772,9.511,7.813c0.464,0.102,1.042,0.241,1.749,0.41l1.16,0.276c1.776-3.161,2.274-4.869,2.274-7.57
		C232.232,11.011,229.492,8.575,224.515,8.575z"/>
	<path fill="#58595B" d="M265.142,30.388c5.218-2.789,9.69-3.995,15.838-3.995c14.542,0,24.975,7.988,24.975,19.133
		c0,12.541-12.298,21.55-29.444,21.55c-7.176,0-11.834-1.207-16.119-3.996c-4.38-3.062-6.806-7.058-6.806-11.608
		c0-6.131,4.384-10.587,10.531-10.587c5.874,0,10.904,4.642,10.904,10.03c0,4.365-3.636,8.267-8.108,8.731
		c1.772,1.578,2.702,1.947,4.473,1.947c6.712,0,10.154-4.826,10.154-14.208c0-9.66-2.891-14.025-9.222-14.025
		c-2.703,0-5.687,1.206-6.987,2.972c-0.562,0.745-0.936,1.206-0.936,1.206c-0.464,0.467-1.208,0.651-2.234,0.651
		c-2.238,0-3.54-1.3-3.54-3.714v-0.557l0.931-31.209c5.405,1.114,7.549,1.486,12.017,2.138c4.479,0.557,8.019,0.833,11.468,0.833
		c7.916,0,14.068-0.927,19.938-2.971c-0.278,4.461-0.933,6.039-3.543,9.847c-1.862,2.6-4.284,4.736-6.984,6.314
		c-3.447,1.951-7.361,2.881-12.491,2.881c-4.749,0-7.729-0.464-14.624-2.321L265.142,30.388z"/>
	<path fill="#58595B" d="M276.51,67.927c-7.271,0-12.075-1.197-16.586-4.133c-4.711-3.297-7.189-7.552-7.189-12.322
		c0-6.628,4.788-11.439,11.382-11.439c6.371,0,11.754,4.984,11.754,10.882c0,4.146-3.001,7.933-6.998,9.189
		c0.84,0.53,1.502,0.639,2.513,0.639c6.173,0,9.302-4.494,9.302-13.357c0-11.676-4.473-13.174-8.369-13.174
		c-2.489,0-5.197,1.128-6.303,2.625c-0.577,0.767-0.961,1.237-0.961,1.237c-0.669,0.679-1.572,0.967-2.894,0.967
		c-2.75,0-4.393-1.708-4.393-4.566v-0.557l0.963-32.248l0.993,0.204c5.531,1.142,7.63,1.497,11.967,2.129
		c4.641,0.578,8.038,0.825,11.345,0.825c7.79,0,13.851-0.901,19.657-2.923l1.208-0.422l-0.08,1.277
		c-0.291,4.71-1.048,6.423-3.686,10.276c-1.883,2.625-4.391,4.89-7.261,6.567c-3.615,2.047-7.718,2.998-12.92,2.998
		c-4.61,0-7.592-0.435-13.792-2.07l-0.146,8.449c4.959-2.461,9.274-3.438,14.963-3.438c14.966,0,25.827,8.405,25.827,19.984
		C306.807,58.505,294.065,67.927,276.51,67.927z M264.117,41.736c-5.608,0-9.681,4.094-9.681,9.735
		c0,4.191,2.229,7.964,6.441,10.911c4.188,2.725,8.723,3.841,15.633,3.841c16.567,0,28.594-8.705,28.594-20.698
		c0-10.593-10.146-18.281-24.124-18.281c-5.866,0-10.194,1.091-15.435,3.894l-1.278,0.683l0.23-13.499l1.056,0.284
		c6.755,1.821,9.718,2.291,14.401,2.291c4.896,0,8.732-0.879,12.072-2.769c2.655-1.553,4.979-3.653,6.712-6.069
		c2.334-3.407,2.991-4.895,3.289-8.139c-5.623,1.802-11.545,2.611-18.992,2.611c-3.334,0-6.904-0.26-11.573-0.84
		c-4.124-0.601-6.24-0.955-11.089-1.946l-0.902,30.198v0.531c0,1.926,0.88,2.863,2.689,2.863c0.812,0,1.359-0.133,1.625-0.395
		c-0.002-0.002,0.352-0.442,0.865-1.123c1.437-1.946,4.591-3.311,7.667-3.311c9.028,0,10.071,8.491,10.071,14.877
		c0,12.447-5.984,15.06-11.004,15.06c-2.026,0-3.154-0.486-5.037-2.165l-1.439-1.283l1.916-0.198
		c4.049-0.42,7.344-3.958,7.344-7.884C274.168,46.024,269.472,41.736,264.117,41.736z"/>
	<path fill="#231F20" d="M124.672,49.68c0,6.594,1.492,8.637,6.057,8.73h3.82v5.574H90.382V58.41h4.844
		c4.567-0.093,6.058-2.136,6.058-8.73V24.23c0-6.503-1.491-8.638-6.058-8.73h-5.589V9.924c8.665,0,11.926-0.276,16.12-1.115
		c5.125-1.021,7.918-2.413,13.696-6.686h5.218V49.68z"/>
	<path fill="#BA8748" d="M135.187,64.621H89.745v-6.849h5.482c3.743-0.077,5.42-1.264,5.42-8.092V24.23
		c0-6.789-1.752-8.019-5.433-8.092H89V9.287h0.638c8.227,0,11.665-0.237,15.995-1.103c4.953-0.986,7.717-2.338,13.442-6.573
		l0.168-0.125h6.066V49.68c0,6.828,1.677,8.016,5.433,8.092h4.445V64.621z M91.02,63.346h42.892v-4.299h-3.183
		c-5.01-0.102-6.695-2.465-6.695-9.367V2.761h-4.371c-5.793,4.273-8.655,5.653-13.781,6.673c-4.312,0.862-7.737,1.115-15.607,1.127
		v4.301h4.952c4.947,0.098,6.695,2.55,6.695,9.367v25.45c0,6.902-1.686,9.265-6.682,9.367h-4.22V63.346z"/>
	<path fill="#231F20" d="M139.599,31.197c-2.889-2.974-4.754-7.524-4.754-11.705c0-11.238,10.809-18.855,26.93-18.855
		c14.443,0.094,23.574,5.479,23.574,14.024c0,5.574-3.075,8.545-12.112,11.611c4.379,1.765,5.964,2.508,8.105,3.995
		c4.847,3.345,7.363,8.08,7.363,13.745c0,12.819-12.114,21.365-30.097,21.365c-15.002,0-25.252-6.225-25.252-15.604
		c0-6.318,4.474-10.959,13.697-13.84C142.859,33.891,141.369,32.961,139.599,31.197 M148.729,48.473
		c0,7.337,3.728,11.796,9.878,11.796c5.776,0,9.411-3.347,9.411-8.824c0-5.946-2.143-7.803-12.581-10.962l-3.819-1.207
		C149.288,42.991,148.729,44.851,148.729,48.473 M171.187,13.734c0-4.923-3.169-7.709-8.573-7.709c-4.938,0-7.828,2.508-7.828,6.78
		c0,4.738,2.329,6.688,10.158,8.639c0.836,0.186,1.956,0.464,3.541,0.836C170.627,18.566,171.187,16.706,171.187,13.734"/>
	<path fill="#BA8748" d="M158.607,66.015c-15.486,0-25.89-6.527-25.89-16.242c0-6.295,4.257-10.986,12.661-13.957
		c-3.279-1.648-4.634-2.578-6.229-4.167c-3.005-3.092-4.942-7.861-4.942-12.156C134.207,7.833,145.285,0,161.774,0
		c14.936,0.097,24.212,5.715,24.212,14.662c0,5.526-2.903,8.683-10.955,11.653c3.262,1.343,4.737,2.085,6.673,3.429
		c4.996,3.446,7.637,8.38,7.637,14.268C189.342,57.172,176.991,66.015,158.607,66.015z M161.77,1.275
		c-15.722,0-26.288,7.322-26.288,18.218c0,3.981,1.795,8.4,4.574,11.26c1.676,1.669,3.106,2.576,7.275,4.605l1.444,0.705
		l-1.533,0.478c-8.916,2.785-13.25,7.113-13.25,13.232c0,8.951,9.892,14.966,24.615,14.966c17.621,0,29.459-8.331,29.459-20.727
		c0-5.449-2.452-10.02-7.087-13.219c-2.119-1.471-3.688-2.197-7.981-3.928l-1.595-0.643l1.628-0.553
		c8.733-2.962,11.68-5.74,11.68-11.007C184.711,6.497,175.92,1.368,161.77,1.275z M158.607,60.907
		c-6.486,0-10.517-4.765-10.517-12.434c0-3.792,0.614-5.753,2.987-9.535l0.262-0.418l4.29,1.354
		c10.712,3.243,13.026,5.297,13.026,11.571C168.655,57.282,164.805,60.907,158.607,60.907z M151.899,40.035
		c-2.027,3.299-2.533,5.037-2.533,8.438c0,6.987,3.455,11.158,9.241,11.158c5.493,0,8.772-3.06,8.772-8.186
		c0-5.338-1.428-7.113-12.128-10.352L151.899,40.035z M168.8,23.009l-2.183-0.517c-0.728-0.174-1.319-0.315-1.812-0.425
		c-8.171-2.037-10.657-4.199-10.657-9.262c0-4.645,3.165-7.417,8.465-7.417c5.767,0,9.211,3.12,9.211,8.347
		c0,3.128-0.625,5.115-2.787,8.864L168.8,23.009z M162.613,6.663c-4.569,0-7.19,2.239-7.19,6.142c0,4.404,2.08,6.128,9.673,8.02
		c0.482,0.106,1.081,0.25,1.818,0.426l1.253,0.297c1.862-3.29,2.381-5.031,2.381-7.814C170.549,9.174,167.73,6.663,162.613,6.663z"
		/>
	<path fill="#231F20" d="M199.793,31.197c-2.887-2.974-4.751-7.524-4.751-11.705c0-11.238,10.809-18.855,26.93-18.855
		c14.443,0.094,23.574,5.479,23.574,14.024c0,5.574-3.076,8.545-12.114,11.611c4.378,1.765,5.962,2.508,8.106,3.995
		c4.842,3.345,7.361,8.08,7.361,13.745c0,12.819-12.115,21.365-30.098,21.365c-15.002,0-25.251-6.225-25.251-15.604
		c0-6.318,4.474-10.959,13.699-13.84C203.055,33.891,201.567,32.961,199.793,31.197 M208.925,48.473
		c0,7.337,3.727,11.796,9.877,11.796c5.779,0,9.411-3.347,9.411-8.824c0-5.946-2.143-7.803-12.579-10.962l-3.819-1.207
		C209.484,42.991,208.925,44.851,208.925,48.473 M231.386,13.734c0-4.923-3.173-7.709-8.575-7.709c-4.939,0-7.828,2.508-7.828,6.78
		c0,4.738,2.33,6.688,10.155,8.639c0.838,0.186,1.958,0.464,3.542,0.836C230.823,18.566,231.386,16.706,231.386,13.734"/>
	<path fill="#BA8748" d="M218.802,66.015c-15.485,0-25.889-6.527-25.889-16.242c0-6.295,4.258-10.986,12.66-13.957
		c-3.274-1.646-4.63-2.575-6.23-4.167c-3.003-3.094-4.938-7.862-4.938-12.157C194.405,7.833,205.483,0,221.972,0
		c14.938,0.097,24.213,5.715,24.213,14.662c0,5.526-2.905,8.683-10.957,11.653c3.257,1.341,4.732,2.082,6.673,3.429
		c4.996,3.449,7.636,8.383,7.636,14.268C249.537,57.172,237.186,66.015,218.802,66.015z M221.969,1.275
		c-15.723,0-26.289,7.322-26.289,18.218c0,3.98,1.794,8.4,4.571,11.26c1.683,1.673,3.111,2.578,7.277,4.605l1.445,0.705
		l-1.534,0.478c-8.917,2.785-13.251,7.113-13.251,13.232c0,8.951,9.892,14.966,24.614,14.966c17.62,0,29.46-8.331,29.46-20.727
		c0-5.446-2.451-10.018-7.086-13.219c-2.126-1.474-3.693-2.198-7.982-3.928l-1.596-0.643l1.629-0.553
		c8.734-2.962,11.682-5.74,11.682-11.007C244.909,6.497,236.119,1.368,221.969,1.275z M218.802,60.907
		c-6.486,0-10.516-4.765-10.516-12.434c0-3.792,0.614-5.753,2.987-9.535l0.261-0.418l4.291,1.354
		c10.711,3.243,13.025,5.297,13.025,11.571C228.851,57.282,225,60.907,218.802,60.907z M212.095,40.035
		c-2.026,3.299-2.532,5.037-2.532,8.438c0,6.987,3.454,11.158,9.239,11.158c5.493,0,8.772-3.06,8.772-8.186
		c0-5.338-1.428-7.113-12.126-10.352L212.095,40.035z M228.997,23.009l-2.173-0.515c-0.731-0.176-1.326-0.318-1.822-0.427
		c-8.171-2.037-10.657-4.201-10.657-9.262c0-4.645,3.165-7.417,8.467-7.417c5.768,0,9.212,3.12,9.212,8.347
		c0,3.125-0.626,5.113-2.79,8.864L228.997,23.009z M222.811,6.663c-4.569,0-7.19,2.239-7.19,6.142c0,4.403,2.08,6.128,9.672,8.02
		c0.486,0.107,1.088,0.251,1.828,0.428l1.244,0.295c1.864-3.293,2.383-5.034,2.383-7.814C230.748,9.174,227.928,6.663,222.811,6.663
		z"/>
	<path fill="#231F20" d="M263.44,28.689c5.218-2.787,9.69-3.996,15.838-3.996c14.537,0,24.975,7.988,24.975,19.133
		c0,12.541-12.304,21.55-29.447,21.55c-7.174,0-11.834-1.209-16.119-3.996c-4.378-3.062-6.804-7.057-6.804-11.608
		c0-6.131,4.385-10.59,10.532-10.59c5.866,0,10.901,4.644,10.901,10.033c0,4.365-3.633,8.267-8.106,8.728
		c1.771,1.581,2.703,1.954,4.474,1.954c6.709,0,10.156-4.832,10.156-14.211c0-9.66-2.889-14.027-9.224-14.027
		c-2.703,0-5.687,1.208-6.988,2.974c-0.562,0.742-0.938,1.206-0.938,1.206c-0.464,0.465-1.208,0.65-2.233,0.65
		c-2.236,0-3.54-1.299-3.54-3.714v-0.557l0.933-31.21c5.402,1.115,7.544,1.489,12.021,2.138c4.471,0.558,8.011,0.834,11.458,0.834
		c7.92,0,14.068-0.93,19.945-2.973c-0.286,4.459-0.936,6.038-3.546,9.845c-1.862,2.602-4.284,4.738-6.987,6.316
		c-3.445,1.951-7.361,2.88-12.488,2.88c-4.749,0-7.732-0.464-14.625-2.321L263.44,28.689z"/>
	<path fill="#BA8748" d="M274.805,66.015c-7.219,0-11.989-1.188-16.465-4.098c-4.647-3.251-7.095-7.447-7.095-12.144
		c0-6.505,4.697-11.227,11.169-11.227c6.255,0,11.54,4.886,11.54,10.67c0,4.203-3.156,8.027-7.278,9.108
		c1.073,0.781,1.82,0.935,3.007,0.935c6.315,0,9.52-4.567,9.52-13.573c0-9.26-2.65-13.39-8.587-13.39
		c-2.55,0-5.333,1.167-6.474,2.715c-0.574,0.758-0.955,1.229-0.955,1.229c-0.612,0.621-1.467,0.888-2.73,0.888
		c-2.615,0-4.178-1.626-4.178-4.352v-0.557l0.956-31.988l0.744,0.153c5.272,1.088,7.398,1.466,11.982,2.132
		c4.588,0.57,8.098,0.827,11.367,0.827c7.805,0,13.89-0.906,19.734-2.937l0.907-0.315l-0.06,0.959
		c-0.299,4.663-1.049,6.358-3.656,10.164c-1.86,2.597-4.345,4.843-7.19,6.507c-3.58,2.027-7.649,2.967-12.812,2.967
		c-4.653,0-7.645-0.445-14-2.131l-0.156,9.073c5.062-2.562,9.412-3.573,15.182-3.573c14.84,0,25.611,8.314,25.611,19.771
		C304.889,56.683,292.238,66.015,274.805,66.015z M262.415,39.821c-5.734,0-9.895,4.186-9.895,9.952
		c0,4.263,2.26,8.096,6.532,11.085c4.232,2.752,8.803,3.881,15.753,3.881c16.692,0,28.81-8.795,28.81-20.912
		c0-10.717-10.236-18.496-24.337-18.496c-5.899,0-10.257,1.1-15.537,3.92l-0.958,0.511l0.221-12.863l0.79,0.213
		c6.779,1.827,9.75,2.3,14.459,2.3c4.934,0,8.803-0.889,12.175-2.798c2.686-1.57,5.034-3.691,6.782-6.132
		c2.294-3.348,3.036-4.883,3.357-8.562c-5.707,1.863-11.689,2.698-19.238,2.698c-3.324,0-6.885-0.259-11.538-0.838
		c-4.402-0.639-6.557-1.016-11.327-1.993l-0.908,30.989c0,2.041,0.976,3.077,2.901,3.077c0.888,0,1.469-0.15,1.78-0.46
		c-0.003-0.001,0.355-0.448,0.882-1.144c1.377-1.867,4.53-3.227,7.497-3.227c6.729,0,9.86,4.659,9.86,14.665
		c0,12.272-5.869,14.848-10.793,14.848c-1.964,0-3.062-0.474-4.897-2.115l-1.077-0.962l1.437-0.148
		c4.154-0.429,7.534-4.06,7.534-8.094C272.679,44.211,267.882,39.821,262.415,39.821z"/>
	<path fill="#BA8748" d="M182.438,78.861c-0.633,0.54-2.26,2.252-4.942,5.106c-1.174,1.229-3.043,3.513-5.602,6.843
		c-2.983,3.849-4.459,6.069-4.459,6.671c0,0.09,0.061,0.12,0.18,0.12c0.873-0.481,2.14-1.203,3.856-2.162
		c1.566-0.932,3.947-2.314,7.11-4.146v0.659c-0.03,0.03-0.813,0.481-2.349,1.381l-10.122,5.948
		c-0.152,0.242-0.695,0.781-0.844,1.022c-0.272,0.449-0.633,1.11-1.145,1.979c-3.042,4.832-5.546,8.168-7.472,9.975
		c-2.983,2.79-5.635,4.199-7.894,4.199c-1.116,0-1.686-0.509-1.686-1.502c0-2.938,3.794-6.965,11.387-12.07
		c0.812-0.539,1.929-1.23,3.374-2.042c1.718-0.963,2.864-1.619,3.436-1.983c1.083-1.949,3.373-5.253,6.868-9.908
		c0.633-0.754,1.478-1.922,2.592-3.483c-0.391,0.269-1.475,0.719-3.254,1.289c-1.778,0.571-2.891,0.87-3.374,0.87
		c-0.271,0-0.422-0.09-0.422-0.237c0-0.151,0.03-0.334,0.12-0.602c0.513-1.649,1.356-3.032,2.531-4.146
		c2.863-2.672,6.295-4.021,10.303-4.021h1.206L182.438,78.861z M164.242,100.362c-0.15,0.089-1.206,0.812-3.193,2.104
		c-5.695,3.755-9.31,6.665-10.786,8.771c-0.875,1.257-1.326,2.247-1.326,3.001c0,0.718,0.362,1.079,1.083,1.079
		c0.513,0,1.267-0.237,2.231-0.718c1.988-0.989,3.916-2.676,5.784-5.049c3.044-3.873,5.031-6.754,5.965-8.649
		C164.031,100.78,164.211,100.482,164.242,100.362 M180.208,79.28c-0.812,0-1.354,0.031-1.686,0.062
		c-0.601,0.18-1.356,0.388-2.229,0.655c-4.159,1.718-6.417,3.816-6.749,6.371C172.677,86.036,176.232,83.694,180.208,79.28"/>
	<path fill="#BA8748" d="M190.572,91.953c-2.559,1.534-4.489,2.612-5.752,3.241c-2.713,1.387-4.701,2.104-5.936,2.167
		c-0.03-0.15-0.06-0.393-0.06-0.66c0-2.162,1.959-4.718,5.844-7.691c0.603-0.388,1.445-0.99,2.531-1.859
		c-0.091,0-0.33,0.059-0.422,0.059l-1.264-0.179c-2.23,2.042-4.549,3.691-6.93,4.923v-0.659c0.964-0.51,2.11-1.263,3.435-2.222
		c1.719-1.231,2.621-2.073,2.772-2.583c-0.693-0.602-1.023-1.233-1.023-1.862c0-0.63,0.331-1.11,0.962-1.44
		c0.513-0.272,1.085-0.424,1.747-0.424c0.271,0,0.664,0.031,1.146,0.12c0.332,0.45,0.48,0.901,0.48,1.383
		c0,0.78-0.391,1.409-1.203,1.922c0.692,0.058,1.775,0.151,3.193,0.302c-1.929,0.661-3.826,1.86-5.725,3.604
		c-2.079,1.891-3.283,3.756-3.617,5.588c0.242,0.088,0.422,0.121,0.544,0.121c0.933,0,2.499-0.607,4.7-1.833
		c1.535-0.875,3.043-1.775,4.578-2.675V91.953z M186.597,83.187c-0.875-0.031-1.507,0.566-1.507,1.44
		c0,0.629,0.21,1.048,0.662,1.198c0.694-0.869,1.024-1.617,1.024-2.219C186.776,83.453,186.716,83.303,186.597,83.187"/>
	<path fill="#BA8748" d="M197.532,91.953c-1.142,0.69-2.287,1.414-3.432,2.1c-1.538,0.874-2.744,1.325-3.556,1.325
		c-0.211,0-0.422-0.033-0.664-0.12c-0.361-0.3-0.54-0.692-0.54-1.205c0-0.985,0.723-2.278,2.168-3.901
		c0.633-0.69,1.748-1.802,3.374-3.305h0.784c-0.936,1.114-1.837,2.226-2.772,3.336c-1.114,1.352-1.716,2.644-1.806,3.812
		c0.06,0.329,0.269,0.481,0.6,0.481s1.266-0.45,2.801-1.383c1.901-1.141,2.894-1.739,3.043-1.8V91.953z M199.883,83.245
		c-1.022,1.172-2.259,1.743-3.734,1.743c-1.206,0-1.809-0.393-1.809-1.204c0-0.781,0.603-1.409,1.837-1.891
		c0.965-0.389,1.929-0.571,2.862-0.571h0.303l0.06,0.299h-0.182c-0.662,0-1.383,0.152-2.137,0.42
		c-0.995,0.364-1.478,0.815-1.478,1.386c0,0.237,0.15,0.45,0.482,0.599c0.573-1.054,1.295-1.561,2.169-1.561
		C198.95,82.465,199.494,82.736,199.883,83.245"/>
	<path fill="#BA8748" d="M196.931,96.157c0,0.272,0.212,0.424,0.603,0.424c0.693,0,3.946-1.775,9.763-5.287v0.659
		c-5.875,3.513-9.431,5.287-10.605,5.287c-0.271,0-0.633-0.089-1.025-0.24c-0.029-0.151-0.059-0.393-0.059-0.723
		c0-1.44,0.873-3.425,2.589-5.948c1.777-2.612,4.068-5.373,6.87-8.346c3.706-3.933,6.418-5.886,8.074-5.886
		c0.481,0,0.722,0.209,0.722,0.659c0,0.419-0.181,0.905-0.541,1.44c-1.083,1.623-2.861,3.336-5.302,5.136
		c-3.827,2.828-5.876,4.325-6.088,4.508c-2.137,1.86-3.584,3.844-4.398,5.917C197.143,94.806,196.931,95.618,196.931,96.157
		 M211.815,76.997c-1.387,0.996-3.135,2.613-5.212,4.864c-1.596,1.833-3.224,3.636-4.851,5.468l6.508-5.044
		c0.72-0.569,1.444-1.293,2.2-2.194c0.933-1.141,1.416-2.04,1.416-2.67C211.876,77.212,211.844,77.088,211.815,76.997"/>
	<path fill="#BA8748" d="M206.693,96.157c0,0.272,0.213,0.424,0.604,0.424c0.693,0,3.946-1.775,9.761-5.287v0.659
		c-5.874,3.513-9.428,5.287-10.604,5.287c-0.272,0-0.632-0.089-1.024-0.24c-0.031-0.151-0.06-0.393-0.06-0.723
		c0-1.44,0.873-3.425,2.59-5.948c1.778-2.612,4.068-5.373,6.869-8.346c3.704-3.933,6.416-5.886,8.076-5.886
		c0.481,0,0.72,0.209,0.72,0.659c0,0.419-0.181,0.905-0.541,1.44c-1.085,1.623-2.863,3.336-5.303,5.136
		c-3.826,2.828-5.875,4.325-6.085,4.508c-2.141,1.86-3.587,3.844-4.399,5.917C206.906,94.806,206.693,95.618,206.693,96.157
		 M221.577,76.997c-1.384,0.996-3.133,2.613-5.213,4.864c-1.595,1.833-3.222,3.636-4.849,5.468l6.506-5.044
		c0.725-0.569,1.447-1.293,2.199-2.194c0.935-1.141,1.418-2.04,1.418-2.67C221.638,77.212,221.607,77.088,221.577,76.997"/>
</g>
</svg>
