<?xml version="1.0" encoding="utf-8"?>
<!-- Generator: Adobe Illustrator 16.0.0, SVG Export Plug-In . SVG Version: 6.00 Build 0)  -->
<!DOCTYPE svg PUBLIC "-//W3C//DTD SVG 1.1//EN" "http://www.w3.org/Graphics/SVG/1.1/DTD/svg11.dtd">
<svg version="1.1" id="Capa_1" xmlns="http://www.w3.org/2000/svg" xmlns:xlink="http://www.w3.org/1999/xlink" x="0px" y="0px"
	 width="40px" height="40px" viewBox="0 0 40 40" enable-background="new 0 0 40 40" xml:space="preserve">
<rect y="-0.004" fill="#FFFFFF" width="39.999" height="40"/>
<path fill="#222426" d="M26.134,9.994H13.865c-2.132,0-3.866,1.734-3.866,3.863v4.086v8.189c0,2.131,1.734,3.865,3.866,3.865h12.269
	c2.131,0,3.866-1.734,3.866-3.865v-8.189v-4.086C30,11.729,28.266,9.994,26.134,9.994z M27.244,12.299l0.441-0.002v0.441v2.951
	l-3.378,0.01l-0.012-3.391L27.244,12.299z M17.145,17.943c0.641-0.889,1.679-1.469,2.855-1.469c1.174,0,2.214,0.58,2.853,1.469
	c0.418,0.578,0.668,1.285,0.668,2.053c0,1.939-1.58,3.52-3.521,3.52s-3.521-1.58-3.521-3.52
	C16.479,19.229,16.729,18.521,17.145,17.943z M28.05,26.133c0,1.057-0.859,1.914-1.916,1.914H13.865
	c-1.059,0-1.918-0.857-1.918-1.914v-8.189h2.986c-0.257,0.633-0.402,1.326-0.402,2.053c0,3.016,2.453,5.471,5.468,5.471
	c3.016,0,5.469-2.455,5.469-5.471c0-0.727-0.147-1.42-0.404-2.053h2.986V26.133z"/>
</svg>
