<?xml version="1.0" encoding="utf-8"?>
<!-- Generator: Adobe Illustrator 16.0.0, SVG Export Plug-In . SVG Version: 6.00 Build 0)  -->
<!DOCTYPE svg PUBLIC "-//W3C//DTD SVG 1.1//EN" "http://www.w3.org/Graphics/SVG/1.1/DTD/svg11.dtd">
<svg version="1.1" id="Capa_1" xmlns="http://www.w3.org/2000/svg" xmlns:xlink="http://www.w3.org/1999/xlink" x="0px" y="0px"
	 width="40px" height="40px" viewBox="0 0 40 40" enable-background="new 0 0 40 40" xml:space="preserve">
<rect x="-0.042" y="-0.015" fill="#FFFFFF" width="40.001" height="40.001"/>
<circle fill="#222426" cx="12.569" cy="21.26" r="1.227"/>
<circle fill="#222426" cx="27.348" cy="21.26" r="1.228"/>
<g>
	<path fill="#222426" d="M10.006,18.697c-0.685,0.684-1.061,1.594-1.061,2.562s0.376,1.878,1.061,2.562
		c0.685,0.686,1.594,1.062,2.562,1.062c1.998,0,3.624-1.625,3.624-3.623c0-1.998-1.625-3.624-3.624-3.624
		C11.601,17.636,10.691,18.013,10.006,18.697z M10.792,23.036c-0.475-0.476-0.736-1.104-0.736-1.776s0.261-1.303,0.736-1.777
		s1.106-0.736,1.777-0.736c1.386,0,2.513,1.127,2.513,2.514c0,1.386-1.127,2.513-2.513,2.513
		C11.897,23.771,11.266,23.511,10.792,23.036z"/>
</g>
<g>
	<path fill="#222426" d="M24.786,18.697c-0.685,0.684-1.062,1.594-1.062,2.562s0.377,1.878,1.062,2.562
		c0.685,0.686,1.594,1.062,2.562,1.062c1.998,0,3.625-1.625,3.625-3.623c0-1.998-1.625-3.624-3.625-3.624
		C26.38,17.636,25.471,18.013,24.786,18.697z M25.57,23.036c-0.475-0.476-0.735-1.104-0.735-1.776s0.263-1.303,0.735-1.777
		c0.475-0.474,1.105-0.736,1.777-0.736c1.387,0,2.514,1.127,2.514,2.514c0,1.386-1.127,2.513-2.514,2.513
		C26.676,23.771,26.045,23.511,25.57,23.036z"/>
</g>
<path fill="#222426" d="M33.188,16.189c0.283-0.847,0.719-1.845,1.319-2.445h-4.952c-0.082-0.025-0.166-0.043-0.25-0.064
	c-0.27-0.422-2.111-2.799-9.474-2.799c-8.08,0-9.512,2.863-9.512,2.863H5.154c0.659,0.658,1.117,1.793,1.397,2.684
	c-0.952,1.263-1.524,2.827-1.524,4.527c0,4.158,3.383,7.541,7.542,7.541c2.305,0,4.369-1.042,5.754-2.678l1.712,2.397l1.479-2.491
	c1.383,1.689,3.484,2.771,5.834,2.771c4.158,0,7.543-3.383,7.543-7.541C34.889,19.148,34.25,17.489,33.188,16.189z M12.569,27.016
	c-3.342,0-6.061-2.719-6.061-6.061c0-3.343,2.719-6.062,6.061-6.062c3.342,0,6.061,2.719,6.061,6.062
	C18.629,24.297,15.911,27.016,12.569,27.016z M12.671,13.897c0,0,1.943-2.147,7.108-2.147h0.511c5.165,0,7.108,2.147,7.108,2.147
	s-5.522-0.921-7.364,5.881C18.194,12.977,12.671,13.897,12.671,13.897z M27.348,27.016c-3.342,0-6.061-2.719-6.061-6.061
	c0-3.343,2.719-6.062,6.061-6.062s6.062,2.719,6.062,6.062C33.408,24.297,30.689,27.016,27.348,27.016z"/>
</svg>
