<?xml version="1.0" encoding="utf-8"?>
<!-- Generator: Adobe Illustrator 16.0.0, SVG Export Plug-In . SVG Version: 6.00 Build 0)  -->
<!DOCTYPE svg PUBLIC "-//W3C//DTD SVG 1.1//EN" "http://www.w3.org/Graphics/SVG/1.1/DTD/svg11.dtd">
<svg version="1.1" id="Capa_1" xmlns="http://www.w3.org/2000/svg" xmlns:xlink="http://www.w3.org/1999/xlink" x="0px" y="0px"
	 width="40px" height="40px" viewBox="0 0 40 40" enable-background="new 0 0 40 40" xml:space="preserve">
<rect y="-0.001" fill="#FFFFFF" width="39.999" height="39.999"/>
<path fill="#222426" d="M30.017,13.784c-0.737,0.326-1.53,0.547-2.36,0.647c0.849-0.509,1.5-1.314,1.807-2.272
	c-0.794,0.472-1.673,0.811-2.611,0.993c-0.748-0.797-1.817-1.297-3-1.297c-2.268,0-4.108,1.842-4.108,4.112
	c0,0.323,0.035,0.636,0.105,0.935c-3.416-0.172-6.444-1.806-8.472-4.297c-0.354,0.612-0.556,1.317-0.556,2.069
	c0,1.424,0.726,2.686,1.829,3.424c-0.674-0.022-1.308-0.207-1.863-0.516v0.052c0,1.993,1.417,3.654,3.298,4.029
	c-0.345,0.098-0.708,0.145-1.083,0.145c-0.265,0-0.523-0.022-0.773-0.071c0.522,1.632,2.04,2.821,3.839,2.853
	c-1.407,1.103-3.18,1.759-5.105,1.759c-0.332,0-0.66-0.018-0.98-0.054c1.819,1.163,3.979,1.846,6.3,1.846
	c7.561,0,11.694-6.263,11.694-11.695c0-0.181-0.003-0.357-0.011-0.534C28.77,15.334,29.467,14.61,30.017,13.784"/>
</svg>
